<svg width="102" height="34" viewBox="0 0 102 34" fill="none" xmlns="http://www.w3.org/2000/svg">
<path d="M12.0578 0C14.7795 0 16.979 0.28483 18.6564 0.85449C20.3653 1.42415 21.5996 2.40523 22.3592 3.79773C23.1503 5.15859 23.5459 7.0891 23.5459 9.58928C23.5459 11.235 23.3402 12.6433 22.9288 13.8143C22.549 14.9536 21.9003 15.8714 20.9825 16.5676C20.0963 17.2322 18.8937 17.6595 17.3746 17.8493V18.0867C17.9126 18.2133 18.4665 18.4665 19.0361 18.8463C19.6374 19.1944 20.1755 19.7007 20.6502 20.3653C21.1565 21.0299 21.5363 21.8844 21.7895 22.9288L24.7802 33.1827H18.5139L15.8081 23.0712C15.4599 21.9319 14.9852 21.1407 14.3839 20.6976C13.7826 20.2229 12.9598 19.9856 11.9154 19.9856C9.85828 19.9856 8.10183 19.9856 6.64603 19.9856C5.19024 19.9539 3.9718 19.9223 2.99071 19.8906C2.04128 19.859 1.20262 19.8432 0.474717 19.8432L0.617131 15.3333H11.9154C13.3395 15.3017 14.463 15.1435 15.2859 14.8586C16.1087 14.5422 16.6942 14.0041 17.0423 13.2446C17.3905 12.4534 17.5645 11.3457 17.5645 9.92158C17.5645 8.52908 17.3905 7.45305 17.0423 6.69351C16.6942 5.93396 16.1087 5.41177 15.2859 5.12694C14.463 4.81046 13.3395 4.65223 11.9154 4.65223C9.13038 4.65223 6.74098 4.66805 4.74717 4.6997C2.75336 4.73134 1.3925 4.76299 0.664603 4.79464L0 0.427245C1.26591 0.300656 2.4527 0.205713 3.56037 0.142416C4.69969 0.0791213 5.93396 0.0474739 7.26316 0.0474739C8.59237 0.0158246 10.1906 0 12.0578 0ZM5.83901 0.427245V33.1827H0V0.427245H5.83901Z" fill="white"/>
<path d="M70.8188 0.427245L64.9323 31.5212C64.8057 31.9959 64.5367 32.3915 64.1253 32.708C63.7455 33.0245 63.2708 33.1827 62.7012 33.1827H56.8147C56.2767 33.1827 55.802 33.0245 55.3905 32.708C54.9791 32.3915 54.7418 31.9801 54.6785 31.4737L50.3585 8.73479C50.2319 8.03854 50.1212 7.35811 50.0262 6.69351C49.9313 6.0289 49.8363 5.3643 49.7414 4.6997H48.792C48.697 5.3643 48.5863 6.04473 48.4597 6.74098C48.3647 7.40558 48.2698 8.07018 48.1748 8.73479L43.9024 31.4737C43.8074 31.9801 43.5543 32.3915 43.1428 32.708C42.7314 33.0245 42.2567 33.1827 41.7187 33.1827H35.7847C35.2151 33.1827 34.7245 33.0245 34.3131 32.708C33.9333 32.3915 33.696 31.9959 33.601 31.5212L27.7146 0.427245H33.7909L37.921 24.4004C38.0159 25.0334 38.095 25.7296 38.1583 26.4892C38.2533 27.2487 38.3482 28.0241 38.4431 28.8153H39.4401C39.5666 28.0874 39.6932 27.3437 39.8198 26.5841C39.9464 25.7929 40.073 25.0492 40.1996 24.353L44.4246 2.27864C44.4879 1.70898 44.7252 1.26591 45.1367 0.949435C45.5481 0.601308 46.0228 0.427245 46.5608 0.427245H51.9251C52.4948 0.427245 52.9695 0.601308 53.3492 0.949435C53.729 1.26591 53.9822 1.70898 54.1088 2.27864L58.3338 24.4004C58.492 25.1283 58.6186 25.8721 58.7135 26.6316C58.8401 27.3912 58.9509 28.1191 59.0458 28.8153H60.0902C60.1535 28.0874 60.2326 27.3437 60.3276 26.5841C60.4225 25.8246 60.5175 25.1125 60.6124 24.4479L64.7425 0.427245H70.8188Z" fill="white"/>
<path d="M88.1397 0C90.6082 0 92.697 0.28483 94.4059 0.85449C96.1466 1.3925 97.5391 2.31029 98.5834 3.60785C99.6595 4.87376 100.435 6.59856 100.91 8.78226C101.384 10.9343 101.622 13.6085 101.622 16.805C101.622 20.0014 101.384 22.6915 100.91 24.8752C100.435 27.0272 99.6595 28.752 98.5834 30.0496C97.5391 31.3155 96.1466 32.2333 94.4059 32.8029C92.697 33.3409 90.6082 33.6099 88.1397 33.6099C85.7661 33.6099 83.5666 33.5625 81.5411 33.4675C79.5157 33.4042 77.601 33.3093 75.797 33.1827L78.2656 28.6254C79.5315 28.6887 80.9873 28.752 82.633 28.8153C84.2786 28.847 86.1142 28.8628 88.1397 28.8628C89.9752 28.8628 91.4152 28.5146 92.4596 27.8184C93.5356 27.0905 94.2952 25.8562 94.7382 24.1156C95.1813 22.3433 95.4028 19.9065 95.4028 16.805C95.4028 13.7035 95.1813 11.2824 94.7382 9.54181C94.2952 7.76953 93.5356 6.51944 92.4596 5.79154C91.4152 5.06365 89.9752 4.6997 88.1397 4.6997C86.1775 4.6997 84.4211 4.71552 82.8703 4.74717C81.3512 4.77881 79.8638 4.79464 78.408 4.79464L75.797 0.427245C77.601 0.300656 79.4998 0.205713 81.4936 0.142416C83.5191 0.047472 85.7344 0 88.1397 0ZM81.731 0.427245V33.1827H75.797V0.427245H81.731Z" fill="white"/>
<path d="M0.0234375 33.1828L100.545 7.42943C100.545 7.42943 100.307 6.00528 99.1205 4.34377C97.9337 2.68226 96.9843 2.08887 96.9843 2.08887L0.0234376 26.4637L0.0234375 33.1828Z" fill="#FF9A00" fill-opacity="0.8"/>
</svg>
